<mxfile host="app.diagrams.net" agent="Mozilla/5.0 (Windows NT 10.0; Win64; x64) AppleWebKit/537.36 (KHTML, like Gecko) Chrome/127.0.0.0 Safari/537.36 Edg/127.0.0.0" version="24.7.7">
  <diagram name="Страница — 1" id="FsbYjuPGpKGKxVO2yZ1j">
    <mxGraphModel dx="1217" dy="820" grid="1" gridSize="10" guides="1" tooltips="1" connect="1" arrows="1" fold="1" page="1" pageScale="1" pageWidth="827" pageHeight="1169" math="0" shadow="0">
      <root>
        <mxCell id="0" />
        <mxCell id="1" parent="0" />
        <mxCell id="0eS5o4qL9L04yY5VfjOq-129" value="" style="group;fontSize=14;" vertex="1" connectable="0" parent="1">
          <mxGeometry x="30" y="50" width="180" height="480" as="geometry" />
        </mxCell>
        <mxCell id="0eS5o4qL9L04yY5VfjOq-54" value="email_verified_at" style="text;strokeColor=none;fillColor=none;align=left;verticalAlign=middle;spacingLeft=4;spacingRight=4;overflow=hidden;points=[[0,0.5],[1,0.5]];portConstraint=eastwest;rotatable=0;whiteSpace=wrap;html=1;strokeWidth=1;fontSize=14;" vertex="1" parent="0eS5o4qL9L04yY5VfjOq-129">
          <mxGeometry x="40" y="180" width="140" height="30" as="geometry" />
        </mxCell>
        <mxCell id="0eS5o4qL9L04yY5VfjOq-55" value="password" style="text;strokeColor=none;fillColor=none;align=left;verticalAlign=middle;spacingLeft=4;spacingRight=4;overflow=hidden;points=[[0,0.5],[1,0.5]];portConstraint=eastwest;rotatable=0;whiteSpace=wrap;html=1;strokeWidth=1;fontSize=14;" vertex="1" parent="0eS5o4qL9L04yY5VfjOq-129">
          <mxGeometry x="40" y="210" width="140" height="30" as="geometry" />
        </mxCell>
        <mxCell id="0eS5o4qL9L04yY5VfjOq-56" value="remember_token&lt;span style=&quot;white-space: pre; font-size: 14px;&quot;&gt;&#x9;&lt;/span&gt;" style="text;strokeColor=none;fillColor=none;align=left;verticalAlign=middle;spacingLeft=4;spacingRight=4;overflow=hidden;points=[[0,0.5],[1,0.5]];portConstraint=eastwest;rotatable=0;whiteSpace=wrap;html=1;strokeWidth=1;fontSize=14;" vertex="1" parent="0eS5o4qL9L04yY5VfjOq-129">
          <mxGeometry x="40" y="240" width="140" height="30" as="geometry" />
        </mxCell>
        <mxCell id="0eS5o4qL9L04yY5VfjOq-122" value="settings&lt;span style=&quot;white-space:pre&quot;&gt;&#x9;&lt;/span&gt;" style="text;strokeColor=none;fillColor=none;align=left;verticalAlign=middle;spacingLeft=4;spacingRight=4;overflow=hidden;points=[[0,0.5],[1,0.5]];portConstraint=eastwest;rotatable=0;whiteSpace=wrap;html=1;" vertex="1" parent="0eS5o4qL9L04yY5VfjOq-129">
          <mxGeometry x="40" y="270" width="140" height="30" as="geometry" />
        </mxCell>
        <mxCell id="0eS5o4qL9L04yY5VfjOq-123" value="created_at" style="text;strokeColor=none;fillColor=none;align=left;verticalAlign=middle;spacingLeft=4;spacingRight=4;overflow=hidden;points=[[0,0.5],[1,0.5]];portConstraint=eastwest;rotatable=0;whiteSpace=wrap;html=1;" vertex="1" parent="0eS5o4qL9L04yY5VfjOq-129">
          <mxGeometry x="40" y="300" width="140" height="30" as="geometry" />
        </mxCell>
        <mxCell id="0eS5o4qL9L04yY5VfjOq-124" value="updated_at&lt;span style=&quot;white-space:pre&quot;&gt;&#x9;&lt;/span&gt;" style="text;strokeColor=none;fillColor=none;align=left;verticalAlign=middle;spacingLeft=4;spacingRight=4;overflow=hidden;points=[[0,0.5],[1,0.5]];portConstraint=eastwest;rotatable=0;whiteSpace=wrap;html=1;" vertex="1" parent="0eS5o4qL9L04yY5VfjOq-129">
          <mxGeometry x="40" y="330" width="140" height="30" as="geometry" />
        </mxCell>
        <mxCell id="0eS5o4qL9L04yY5VfjOq-125" value="deleted_at" style="text;strokeColor=none;fillColor=none;align=left;verticalAlign=middle;spacingLeft=4;spacingRight=4;overflow=hidden;points=[[0,0.5],[1,0.5]];portConstraint=eastwest;rotatable=0;whiteSpace=wrap;html=1;" vertex="1" parent="0eS5o4qL9L04yY5VfjOq-129">
          <mxGeometry x="40" y="360" width="140" height="30" as="geometry" />
        </mxCell>
        <mxCell id="0eS5o4qL9L04yY5VfjOq-126" value="district" style="text;strokeColor=none;fillColor=none;align=left;verticalAlign=middle;spacingLeft=4;spacingRight=4;overflow=hidden;points=[[0,0.5],[1,0.5]];portConstraint=eastwest;rotatable=0;whiteSpace=wrap;html=1;" vertex="1" parent="0eS5o4qL9L04yY5VfjOq-129">
          <mxGeometry x="40" y="390" width="140" height="30" as="geometry" />
        </mxCell>
        <mxCell id="0eS5o4qL9L04yY5VfjOq-127" value="phone" style="text;strokeColor=none;fillColor=none;align=left;verticalAlign=middle;spacingLeft=4;spacingRight=4;overflow=hidden;points=[[0,0.5],[1,0.5]];portConstraint=eastwest;rotatable=0;whiteSpace=wrap;html=1;" vertex="1" parent="0eS5o4qL9L04yY5VfjOq-129">
          <mxGeometry x="40" y="420" width="140" height="30" as="geometry" />
        </mxCell>
        <mxCell id="0eS5o4qL9L04yY5VfjOq-128" value="department_id" style="text;strokeColor=none;fillColor=none;align=left;verticalAlign=middle;spacingLeft=4;spacingRight=4;overflow=hidden;points=[[0,0.5],[1,0.5]];portConstraint=eastwest;rotatable=0;whiteSpace=wrap;html=1;" vertex="1" parent="0eS5o4qL9L04yY5VfjOq-129">
          <mxGeometry x="40" y="450" width="140" height="30" as="geometry" />
        </mxCell>
        <mxCell id="0eS5o4qL9L04yY5VfjOq-130" value="" style="group" vertex="1" connectable="0" parent="0eS5o4qL9L04yY5VfjOq-129">
          <mxGeometry width="180" height="480" as="geometry" />
        </mxCell>
        <mxCell id="0eS5o4qL9L04yY5VfjOq-22" value="users" style="shape=table;startSize=30;container=1;collapsible=0;childLayout=tableLayout;fixedRows=1;rowLines=0;fontStyle=0;strokeColor=default;fontSize=16;" vertex="1" parent="0eS5o4qL9L04yY5VfjOq-130">
          <mxGeometry width="180" height="480" as="geometry" />
        </mxCell>
        <mxCell id="0eS5o4qL9L04yY5VfjOq-23" value="" style="shape=tableRow;horizontal=0;startSize=0;swimlaneHead=0;swimlaneBody=0;top=0;left=0;bottom=0;right=0;collapsible=0;dropTarget=0;fillColor=none;points=[[0,0.5],[1,0.5]];portConstraint=eastwest;strokeColor=inherit;fontSize=16;" vertex="1" parent="0eS5o4qL9L04yY5VfjOq-22">
          <mxGeometry y="30" width="180" height="30" as="geometry" />
        </mxCell>
        <mxCell id="0eS5o4qL9L04yY5VfjOq-24" value="PK" style="shape=partialRectangle;html=1;whiteSpace=wrap;connectable=0;fillColor=none;top=0;left=0;bottom=0;right=0;overflow=hidden;pointerEvents=1;strokeColor=inherit;fontSize=16;" vertex="1" parent="0eS5o4qL9L04yY5VfjOq-23">
          <mxGeometry width="40" height="30" as="geometry">
            <mxRectangle width="40" height="30" as="alternateBounds" />
          </mxGeometry>
        </mxCell>
        <mxCell id="0eS5o4qL9L04yY5VfjOq-25" value="&lt;span style=&quot;font-size: 14px;&quot;&gt;id&lt;/span&gt;" style="shape=partialRectangle;html=1;whiteSpace=wrap;connectable=0;fillColor=none;top=0;left=0;bottom=0;right=0;align=left;spacingLeft=6;overflow=hidden;strokeColor=inherit;fontSize=14;strokeWidth=1;fontFamily=Times New Roman;labelBackgroundColor=none;fontStyle=0" vertex="1" parent="0eS5o4qL9L04yY5VfjOq-23">
          <mxGeometry x="40" width="140" height="30" as="geometry">
            <mxRectangle width="140" height="30" as="alternateBounds" />
          </mxGeometry>
        </mxCell>
        <mxCell id="0eS5o4qL9L04yY5VfjOq-26" value="" style="shape=tableRow;horizontal=0;startSize=0;swimlaneHead=0;swimlaneBody=0;top=0;left=0;bottom=0;right=0;collapsible=0;dropTarget=0;fillColor=none;points=[[0,0.5],[1,0.5]];portConstraint=eastwest;strokeColor=inherit;fontSize=16;" vertex="1" parent="0eS5o4qL9L04yY5VfjOq-22">
          <mxGeometry y="60" width="180" height="30" as="geometry" />
        </mxCell>
        <mxCell id="0eS5o4qL9L04yY5VfjOq-27" value="" style="shape=partialRectangle;html=1;whiteSpace=wrap;connectable=0;fillColor=none;top=0;left=0;bottom=0;right=0;overflow=hidden;strokeColor=inherit;fontSize=16;" vertex="1" parent="0eS5o4qL9L04yY5VfjOq-26">
          <mxGeometry width="40" height="30" as="geometry">
            <mxRectangle width="40" height="30" as="alternateBounds" />
          </mxGeometry>
        </mxCell>
        <mxCell id="0eS5o4qL9L04yY5VfjOq-28" value="&lt;span style=&quot;font-size: 14px;&quot;&gt;role_id&lt;/span&gt;" style="shape=partialRectangle;html=1;whiteSpace=wrap;connectable=0;fillColor=none;top=0;left=0;bottom=0;right=0;align=left;spacingLeft=6;overflow=hidden;strokeColor=inherit;fontSize=14;strokeWidth=1;fontFamily=Times New Roman;labelBackgroundColor=none;fontStyle=0" vertex="1" parent="0eS5o4qL9L04yY5VfjOq-26">
          <mxGeometry x="40" width="140" height="30" as="geometry">
            <mxRectangle width="140" height="30" as="alternateBounds" />
          </mxGeometry>
        </mxCell>
        <mxCell id="0eS5o4qL9L04yY5VfjOq-29" value="" style="shape=tableRow;horizontal=0;startSize=0;swimlaneHead=0;swimlaneBody=0;top=0;left=0;bottom=0;right=0;collapsible=0;dropTarget=0;fillColor=none;points=[[0,0.5],[1,0.5]];portConstraint=eastwest;strokeColor=inherit;fontSize=16;" vertex="1" parent="0eS5o4qL9L04yY5VfjOq-22">
          <mxGeometry y="90" width="180" height="30" as="geometry" />
        </mxCell>
        <mxCell id="0eS5o4qL9L04yY5VfjOq-30" value="" style="shape=partialRectangle;html=1;whiteSpace=wrap;connectable=0;fillColor=none;top=0;left=0;bottom=0;right=0;overflow=hidden;strokeColor=inherit;fontSize=16;" vertex="1" parent="0eS5o4qL9L04yY5VfjOq-29">
          <mxGeometry width="40" height="30" as="geometry">
            <mxRectangle width="40" height="30" as="alternateBounds" />
          </mxGeometry>
        </mxCell>
        <mxCell id="0eS5o4qL9L04yY5VfjOq-31" value="&lt;span style=&quot;font-size: 14px;&quot;&gt;name&lt;/span&gt;" style="shape=partialRectangle;html=1;whiteSpace=wrap;connectable=0;fillColor=none;top=0;left=0;bottom=0;right=0;align=left;spacingLeft=6;overflow=hidden;strokeColor=inherit;fontSize=14;strokeWidth=1;fontFamily=Times New Roman;labelBackgroundColor=none;fontStyle=0" vertex="1" parent="0eS5o4qL9L04yY5VfjOq-29">
          <mxGeometry x="40" width="140" height="30" as="geometry">
            <mxRectangle width="140" height="30" as="alternateBounds" />
          </mxGeometry>
        </mxCell>
        <mxCell id="0eS5o4qL9L04yY5VfjOq-32" value="" style="shape=tableRow;horizontal=0;startSize=0;swimlaneHead=0;swimlaneBody=0;top=0;left=0;bottom=0;right=0;collapsible=0;dropTarget=0;fillColor=none;points=[[0,0.5],[1,0.5]];portConstraint=eastwest;strokeColor=inherit;fontSize=16;" vertex="1" parent="0eS5o4qL9L04yY5VfjOq-22">
          <mxGeometry y="120" width="180" height="30" as="geometry" />
        </mxCell>
        <mxCell id="0eS5o4qL9L04yY5VfjOq-33" value="" style="shape=partialRectangle;html=1;whiteSpace=wrap;connectable=0;fillColor=none;top=0;left=0;bottom=0;right=0;overflow=hidden;pointerEvents=1;strokeColor=inherit;fontSize=16;" vertex="1" parent="0eS5o4qL9L04yY5VfjOq-32">
          <mxGeometry width="40" height="30" as="geometry">
            <mxRectangle width="40" height="30" as="alternateBounds" />
          </mxGeometry>
        </mxCell>
        <mxCell id="0eS5o4qL9L04yY5VfjOq-34" value="&lt;span style=&quot;font-size: 14px;&quot;&gt;email&lt;/span&gt;" style="shape=partialRectangle;html=1;whiteSpace=wrap;connectable=0;fillColor=none;top=0;left=0;bottom=0;right=0;align=left;spacingLeft=6;overflow=hidden;strokeColor=inherit;fontSize=14;strokeWidth=1;fontFamily=Times New Roman;labelBackgroundColor=none;fontStyle=0" vertex="1" parent="0eS5o4qL9L04yY5VfjOq-32">
          <mxGeometry x="40" width="140" height="30" as="geometry">
            <mxRectangle width="140" height="30" as="alternateBounds" />
          </mxGeometry>
        </mxCell>
        <mxCell id="0eS5o4qL9L04yY5VfjOq-35" value="" style="shape=tableRow;horizontal=0;startSize=0;swimlaneHead=0;swimlaneBody=0;top=0;left=0;bottom=0;right=0;collapsible=0;dropTarget=0;fillColor=none;points=[[0,0.5],[1,0.5]];portConstraint=eastwest;strokeColor=inherit;fontSize=16;" vertex="1" parent="0eS5o4qL9L04yY5VfjOq-22">
          <mxGeometry y="150" width="180" height="30" as="geometry" />
        </mxCell>
        <mxCell id="0eS5o4qL9L04yY5VfjOq-36" value="" style="shape=partialRectangle;html=1;whiteSpace=wrap;connectable=0;fillColor=none;top=0;left=0;bottom=0;right=0;overflow=hidden;strokeColor=inherit;fontSize=16;" vertex="1" parent="0eS5o4qL9L04yY5VfjOq-35">
          <mxGeometry width="40" height="30" as="geometry">
            <mxRectangle width="40" height="30" as="alternateBounds" />
          </mxGeometry>
        </mxCell>
        <mxCell id="0eS5o4qL9L04yY5VfjOq-37" value="" style="shape=partialRectangle;html=1;whiteSpace=wrap;connectable=0;fillColor=none;top=0;left=0;bottom=0;right=0;align=left;spacingLeft=6;overflow=hidden;strokeColor=inherit;fontSize=14;fontFamily=Times New Roman;labelBackgroundColor=none;fontStyle=0" vertex="1" parent="0eS5o4qL9L04yY5VfjOq-35">
          <mxGeometry x="40" width="140" height="30" as="geometry">
            <mxRectangle width="140" height="30" as="alternateBounds" />
          </mxGeometry>
        </mxCell>
        <mxCell id="0eS5o4qL9L04yY5VfjOq-38" value="" style="shape=tableRow;horizontal=0;startSize=0;swimlaneHead=0;swimlaneBody=0;top=0;left=0;bottom=0;right=0;collapsible=0;dropTarget=0;fillColor=none;points=[[0,0.5],[1,0.5]];portConstraint=eastwest;strokeColor=inherit;fontSize=12;" vertex="1" parent="0eS5o4qL9L04yY5VfjOq-22">
          <mxGeometry y="180" width="180" height="30" as="geometry" />
        </mxCell>
        <mxCell id="0eS5o4qL9L04yY5VfjOq-39" value="" style="shape=partialRectangle;html=1;whiteSpace=wrap;connectable=0;fillColor=none;top=0;left=0;bottom=0;right=0;overflow=hidden;strokeColor=inherit;fontSize=16;" vertex="1" parent="0eS5o4qL9L04yY5VfjOq-38">
          <mxGeometry width="40" height="30" as="geometry">
            <mxRectangle width="40" height="30" as="alternateBounds" />
          </mxGeometry>
        </mxCell>
        <mxCell id="0eS5o4qL9L04yY5VfjOq-40" value="" style="shape=partialRectangle;html=1;whiteSpace=wrap;connectable=0;fillColor=none;top=0;left=0;bottom=0;right=0;align=left;spacingLeft=6;overflow=hidden;strokeColor=inherit;fontSize=12;fontFamily=Times New Roman;labelBackgroundColor=none;fontStyle=0" vertex="1" parent="0eS5o4qL9L04yY5VfjOq-38">
          <mxGeometry x="40" width="140" height="30" as="geometry">
            <mxRectangle width="140" height="30" as="alternateBounds" />
          </mxGeometry>
        </mxCell>
        <mxCell id="0eS5o4qL9L04yY5VfjOq-41" value="" style="shape=tableRow;horizontal=0;startSize=0;swimlaneHead=0;swimlaneBody=0;top=0;left=0;bottom=0;right=0;collapsible=0;dropTarget=0;fillColor=none;points=[[0,0.5],[1,0.5]];portConstraint=eastwest;strokeColor=inherit;fontSize=16;" vertex="1" parent="0eS5o4qL9L04yY5VfjOq-22">
          <mxGeometry y="210" width="180" height="30" as="geometry" />
        </mxCell>
        <mxCell id="0eS5o4qL9L04yY5VfjOq-42" value="" style="shape=partialRectangle;html=1;whiteSpace=wrap;connectable=0;fillColor=none;top=0;left=0;bottom=0;right=0;overflow=hidden;pointerEvents=1;strokeColor=inherit;fontSize=16;" vertex="1" parent="0eS5o4qL9L04yY5VfjOq-41">
          <mxGeometry width="40" height="30" as="geometry">
            <mxRectangle width="40" height="30" as="alternateBounds" />
          </mxGeometry>
        </mxCell>
        <mxCell id="0eS5o4qL9L04yY5VfjOq-43" value="" style="shape=partialRectangle;html=1;whiteSpace=wrap;connectable=0;fillColor=none;top=0;left=0;bottom=0;right=0;align=left;spacingLeft=6;overflow=hidden;strokeColor=inherit;fontSize=12;fontFamily=Times New Roman;labelBackgroundColor=none;fontStyle=0" vertex="1" parent="0eS5o4qL9L04yY5VfjOq-41">
          <mxGeometry x="40" width="140" height="30" as="geometry">
            <mxRectangle width="140" height="30" as="alternateBounds" />
          </mxGeometry>
        </mxCell>
        <mxCell id="0eS5o4qL9L04yY5VfjOq-44" value="" style="shape=tableRow;horizontal=0;startSize=0;swimlaneHead=0;swimlaneBody=0;top=0;left=0;bottom=0;right=0;collapsible=0;dropTarget=0;fillColor=none;points=[[0,0.5],[1,0.5]];portConstraint=eastwest;strokeColor=inherit;fontSize=12;" vertex="1" parent="0eS5o4qL9L04yY5VfjOq-22">
          <mxGeometry y="240" width="180" height="30" as="geometry" />
        </mxCell>
        <mxCell id="0eS5o4qL9L04yY5VfjOq-45" value="" style="shape=partialRectangle;html=1;whiteSpace=wrap;connectable=0;fillColor=none;top=0;left=0;bottom=0;right=0;overflow=hidden;strokeColor=inherit;fontSize=16;" vertex="1" parent="0eS5o4qL9L04yY5VfjOq-44">
          <mxGeometry width="40" height="30" as="geometry">
            <mxRectangle width="40" height="30" as="alternateBounds" />
          </mxGeometry>
        </mxCell>
        <mxCell id="0eS5o4qL9L04yY5VfjOq-46" value="" style="shape=partialRectangle;html=1;whiteSpace=wrap;connectable=0;fillColor=none;top=0;left=0;bottom=0;right=0;align=left;spacingLeft=6;overflow=hidden;strokeColor=inherit;fontSize=12;fontFamily=Times New Roman;labelBackgroundColor=none;fontStyle=0" vertex="1" parent="0eS5o4qL9L04yY5VfjOq-44">
          <mxGeometry x="40" width="140" height="30" as="geometry">
            <mxRectangle width="140" height="30" as="alternateBounds" />
          </mxGeometry>
        </mxCell>
        <mxCell id="0eS5o4qL9L04yY5VfjOq-47" value="" style="shape=tableRow;horizontal=0;startSize=0;swimlaneHead=0;swimlaneBody=0;top=0;left=0;bottom=0;right=0;collapsible=0;dropTarget=0;fillColor=none;points=[[0,0.5],[1,0.5]];portConstraint=eastwest;strokeColor=inherit;fontSize=16;" vertex="1" parent="0eS5o4qL9L04yY5VfjOq-22">
          <mxGeometry y="270" width="180" height="30" as="geometry" />
        </mxCell>
        <mxCell id="0eS5o4qL9L04yY5VfjOq-48" value="" style="shape=partialRectangle;html=1;whiteSpace=wrap;connectable=0;fillColor=none;top=0;left=0;bottom=0;right=0;overflow=hidden;strokeColor=inherit;fontSize=16;" vertex="1" parent="0eS5o4qL9L04yY5VfjOq-47">
          <mxGeometry width="40" height="30" as="geometry">
            <mxRectangle width="40" height="30" as="alternateBounds" />
          </mxGeometry>
        </mxCell>
        <mxCell id="0eS5o4qL9L04yY5VfjOq-49" value="" style="shape=partialRectangle;html=1;whiteSpace=wrap;connectable=0;fillColor=none;top=0;left=0;bottom=0;right=0;align=left;spacingLeft=6;overflow=hidden;strokeColor=inherit;fontSize=14;fontFamily=Times New Roman;labelBackgroundColor=none;fontStyle=0;horizontal=1;" vertex="1" parent="0eS5o4qL9L04yY5VfjOq-47">
          <mxGeometry x="40" width="140" height="30" as="geometry">
            <mxRectangle width="140" height="30" as="alternateBounds" />
          </mxGeometry>
        </mxCell>
        <mxCell id="0eS5o4qL9L04yY5VfjOq-94" value="" style="shape=tableRow;horizontal=0;startSize=0;swimlaneHead=0;swimlaneBody=0;top=0;left=0;bottom=0;right=0;collapsible=0;dropTarget=0;fillColor=none;points=[[0,0.5],[1,0.5]];portConstraint=eastwest;strokeColor=inherit;fontSize=16;" vertex="1" parent="0eS5o4qL9L04yY5VfjOq-22">
          <mxGeometry y="300" width="180" height="30" as="geometry" />
        </mxCell>
        <mxCell id="0eS5o4qL9L04yY5VfjOq-95" value="" style="shape=partialRectangle;html=1;whiteSpace=wrap;connectable=0;fillColor=none;top=0;left=0;bottom=0;right=0;overflow=hidden;strokeColor=inherit;fontSize=16;" vertex="1" parent="0eS5o4qL9L04yY5VfjOq-94">
          <mxGeometry width="40" height="30" as="geometry">
            <mxRectangle width="40" height="30" as="alternateBounds" />
          </mxGeometry>
        </mxCell>
        <mxCell id="0eS5o4qL9L04yY5VfjOq-96" value="" style="shape=partialRectangle;html=1;whiteSpace=wrap;connectable=0;fillColor=none;top=0;left=0;bottom=0;right=0;align=left;spacingLeft=6;overflow=hidden;strokeColor=inherit;fontSize=14;fontFamily=Times New Roman;labelBackgroundColor=none;fontStyle=0;horizontal=1;" vertex="1" parent="0eS5o4qL9L04yY5VfjOq-94">
          <mxGeometry x="40" width="140" height="30" as="geometry">
            <mxRectangle width="140" height="30" as="alternateBounds" />
          </mxGeometry>
        </mxCell>
        <mxCell id="0eS5o4qL9L04yY5VfjOq-98" value="" style="shape=tableRow;horizontal=0;startSize=0;swimlaneHead=0;swimlaneBody=0;top=0;left=0;bottom=0;right=0;collapsible=0;dropTarget=0;fillColor=none;points=[[0,0.5],[1,0.5]];portConstraint=eastwest;strokeColor=inherit;fontSize=16;" vertex="1" parent="0eS5o4qL9L04yY5VfjOq-22">
          <mxGeometry y="330" width="180" height="30" as="geometry" />
        </mxCell>
        <mxCell id="0eS5o4qL9L04yY5VfjOq-99" value="" style="shape=partialRectangle;html=1;whiteSpace=wrap;connectable=0;fillColor=none;top=0;left=0;bottom=0;right=0;overflow=hidden;strokeColor=inherit;fontSize=16;" vertex="1" parent="0eS5o4qL9L04yY5VfjOq-98">
          <mxGeometry width="40" height="30" as="geometry">
            <mxRectangle width="40" height="30" as="alternateBounds" />
          </mxGeometry>
        </mxCell>
        <mxCell id="0eS5o4qL9L04yY5VfjOq-100" value="" style="shape=partialRectangle;html=1;whiteSpace=wrap;connectable=0;fillColor=none;top=0;left=0;bottom=0;right=0;align=left;spacingLeft=6;overflow=hidden;strokeColor=inherit;fontSize=14;fontFamily=Times New Roman;labelBackgroundColor=none;fontStyle=0;horizontal=1;" vertex="1" parent="0eS5o4qL9L04yY5VfjOq-98">
          <mxGeometry x="40" width="140" height="30" as="geometry">
            <mxRectangle width="140" height="30" as="alternateBounds" />
          </mxGeometry>
        </mxCell>
        <mxCell id="0eS5o4qL9L04yY5VfjOq-102" value="" style="shape=tableRow;horizontal=0;startSize=0;swimlaneHead=0;swimlaneBody=0;top=0;left=0;bottom=0;right=0;collapsible=0;dropTarget=0;fillColor=none;points=[[0,0.5],[1,0.5]];portConstraint=eastwest;strokeColor=inherit;fontSize=16;" vertex="1" parent="0eS5o4qL9L04yY5VfjOq-22">
          <mxGeometry y="360" width="180" height="30" as="geometry" />
        </mxCell>
        <mxCell id="0eS5o4qL9L04yY5VfjOq-103" value="" style="shape=partialRectangle;html=1;whiteSpace=wrap;connectable=0;fillColor=none;top=0;left=0;bottom=0;right=0;overflow=hidden;strokeColor=inherit;fontSize=16;" vertex="1" parent="0eS5o4qL9L04yY5VfjOq-102">
          <mxGeometry width="40" height="30" as="geometry">
            <mxRectangle width="40" height="30" as="alternateBounds" />
          </mxGeometry>
        </mxCell>
        <mxCell id="0eS5o4qL9L04yY5VfjOq-104" value="" style="shape=partialRectangle;html=1;whiteSpace=wrap;connectable=0;fillColor=none;top=0;left=0;bottom=0;right=0;align=left;spacingLeft=6;overflow=hidden;strokeColor=inherit;fontSize=14;fontFamily=Times New Roman;labelBackgroundColor=none;fontStyle=0;horizontal=1;" vertex="1" parent="0eS5o4qL9L04yY5VfjOq-102">
          <mxGeometry x="40" width="140" height="30" as="geometry">
            <mxRectangle width="140" height="30" as="alternateBounds" />
          </mxGeometry>
        </mxCell>
        <mxCell id="0eS5o4qL9L04yY5VfjOq-106" value="" style="shape=tableRow;horizontal=0;startSize=0;swimlaneHead=0;swimlaneBody=0;top=0;left=0;bottom=0;right=0;collapsible=0;dropTarget=0;fillColor=none;points=[[0,0.5],[1,0.5]];portConstraint=eastwest;strokeColor=inherit;fontSize=16;" vertex="1" parent="0eS5o4qL9L04yY5VfjOq-22">
          <mxGeometry y="390" width="180" height="30" as="geometry" />
        </mxCell>
        <mxCell id="0eS5o4qL9L04yY5VfjOq-107" value="" style="shape=partialRectangle;html=1;whiteSpace=wrap;connectable=0;fillColor=none;top=0;left=0;bottom=0;right=0;overflow=hidden;strokeColor=inherit;fontSize=16;" vertex="1" parent="0eS5o4qL9L04yY5VfjOq-106">
          <mxGeometry width="40" height="30" as="geometry">
            <mxRectangle width="40" height="30" as="alternateBounds" />
          </mxGeometry>
        </mxCell>
        <mxCell id="0eS5o4qL9L04yY5VfjOq-108" value="" style="shape=partialRectangle;html=1;whiteSpace=wrap;connectable=0;fillColor=none;top=0;left=0;bottom=0;right=0;align=left;spacingLeft=6;overflow=hidden;strokeColor=inherit;fontSize=14;fontFamily=Times New Roman;labelBackgroundColor=none;fontStyle=0;horizontal=1;" vertex="1" parent="0eS5o4qL9L04yY5VfjOq-106">
          <mxGeometry x="40" width="140" height="30" as="geometry">
            <mxRectangle width="140" height="30" as="alternateBounds" />
          </mxGeometry>
        </mxCell>
        <mxCell id="0eS5o4qL9L04yY5VfjOq-110" value="" style="shape=tableRow;horizontal=0;startSize=0;swimlaneHead=0;swimlaneBody=0;top=0;left=0;bottom=0;right=0;collapsible=0;dropTarget=0;fillColor=none;points=[[0,0.5],[1,0.5]];portConstraint=eastwest;strokeColor=inherit;fontSize=16;" vertex="1" parent="0eS5o4qL9L04yY5VfjOq-22">
          <mxGeometry y="420" width="180" height="30" as="geometry" />
        </mxCell>
        <mxCell id="0eS5o4qL9L04yY5VfjOq-111" value="" style="shape=partialRectangle;html=1;whiteSpace=wrap;connectable=0;fillColor=none;top=0;left=0;bottom=0;right=0;overflow=hidden;strokeColor=inherit;fontSize=16;" vertex="1" parent="0eS5o4qL9L04yY5VfjOq-110">
          <mxGeometry width="40" height="30" as="geometry">
            <mxRectangle width="40" height="30" as="alternateBounds" />
          </mxGeometry>
        </mxCell>
        <mxCell id="0eS5o4qL9L04yY5VfjOq-112" value="" style="shape=partialRectangle;html=1;whiteSpace=wrap;connectable=0;fillColor=none;top=0;left=0;bottom=0;right=0;align=left;spacingLeft=6;overflow=hidden;strokeColor=inherit;fontSize=14;fontFamily=Times New Roman;labelBackgroundColor=none;fontStyle=0;horizontal=1;" vertex="1" parent="0eS5o4qL9L04yY5VfjOq-110">
          <mxGeometry x="40" width="140" height="30" as="geometry">
            <mxRectangle width="140" height="30" as="alternateBounds" />
          </mxGeometry>
        </mxCell>
        <mxCell id="0eS5o4qL9L04yY5VfjOq-114" value="" style="shape=tableRow;horizontal=0;startSize=0;swimlaneHead=0;swimlaneBody=0;top=0;left=0;bottom=0;right=0;collapsible=0;dropTarget=0;fillColor=none;points=[[0,0.5],[1,0.5]];portConstraint=eastwest;strokeColor=inherit;fontSize=16;" vertex="1" parent="0eS5o4qL9L04yY5VfjOq-22">
          <mxGeometry y="450" width="180" height="30" as="geometry" />
        </mxCell>
        <mxCell id="0eS5o4qL9L04yY5VfjOq-115" value="" style="shape=partialRectangle;html=1;whiteSpace=wrap;connectable=0;fillColor=none;top=0;left=0;bottom=0;right=0;overflow=hidden;strokeColor=inherit;fontSize=16;" vertex="1" parent="0eS5o4qL9L04yY5VfjOq-114">
          <mxGeometry width="40" height="30" as="geometry">
            <mxRectangle width="40" height="30" as="alternateBounds" />
          </mxGeometry>
        </mxCell>
        <mxCell id="0eS5o4qL9L04yY5VfjOq-116" value="" style="shape=partialRectangle;html=1;whiteSpace=wrap;connectable=0;fillColor=none;top=0;left=0;bottom=0;right=0;align=left;spacingLeft=6;overflow=hidden;strokeColor=inherit;fontSize=14;fontFamily=Times New Roman;labelBackgroundColor=none;fontStyle=0;horizontal=1;" vertex="1" parent="0eS5o4qL9L04yY5VfjOq-114">
          <mxGeometry x="40" width="140" height="30" as="geometry">
            <mxRectangle width="140" height="30" as="alternateBounds" />
          </mxGeometry>
        </mxCell>
        <mxCell id="0eS5o4qL9L04yY5VfjOq-53" value="&lt;font style=&quot;font-size: 12px;&quot;&gt;avatar&lt;/font&gt;" style="text;strokeColor=none;fillColor=none;align=left;verticalAlign=middle;spacingLeft=4;spacingRight=4;overflow=hidden;points=[[0,0.5],[1,0.5]];portConstraint=eastwest;rotatable=0;whiteSpace=wrap;html=1;strokeWidth=1;fontSize=14;" vertex="1" parent="0eS5o4qL9L04yY5VfjOq-130">
          <mxGeometry x="40" y="150" width="140" height="30" as="geometry" />
        </mxCell>
        <mxCell id="0eS5o4qL9L04yY5VfjOq-156" value="" style="endArrow=none;html=1;rounded=0;exitX=0.005;exitY=0.103;exitDx=0;exitDy=0;exitPerimeter=0;" edge="1" parent="0eS5o4qL9L04yY5VfjOq-130">
          <mxGeometry width="50" height="50" relative="1" as="geometry">
            <mxPoint x="0.8999999999998636" y="60.09000000000003" as="sourcePoint" />
            <mxPoint x="180" y="60" as="targetPoint" />
          </mxGeometry>
        </mxCell>
        <mxCell id="0eS5o4qL9L04yY5VfjOq-131" value="user_roles" style="shape=table;startSize=30;container=1;collapsible=0;childLayout=tableLayout;fixedRows=1;rowLines=0;fontStyle=0;strokeColor=default;fontSize=16;" vertex="1" parent="1">
          <mxGeometry x="310" y="80" width="180" height="90" as="geometry" />
        </mxCell>
        <mxCell id="0eS5o4qL9L04yY5VfjOq-132" value="" style="shape=tableRow;horizontal=0;startSize=0;swimlaneHead=0;swimlaneBody=0;top=0;left=0;bottom=0;right=0;collapsible=0;dropTarget=0;fillColor=none;points=[[0,0.5],[1,0.5]];portConstraint=eastwest;strokeColor=inherit;fontSize=16;" vertex="1" parent="0eS5o4qL9L04yY5VfjOq-131">
          <mxGeometry y="30" width="180" height="30" as="geometry" />
        </mxCell>
        <mxCell id="0eS5o4qL9L04yY5VfjOq-133" value="FK" style="shape=partialRectangle;html=1;whiteSpace=wrap;connectable=0;fillColor=none;top=0;left=0;bottom=0;right=0;overflow=hidden;pointerEvents=1;strokeColor=inherit;fontSize=16;" vertex="1" parent="0eS5o4qL9L04yY5VfjOq-132">
          <mxGeometry width="40" height="30" as="geometry">
            <mxRectangle width="40" height="30" as="alternateBounds" />
          </mxGeometry>
        </mxCell>
        <mxCell id="0eS5o4qL9L04yY5VfjOq-134" value="&lt;span style=&quot;font-family: Verdana, Arial, Helvetica, sans-serif; font-size: 12.96px; white-space: pre; background-color: rgb(238, 238, 238);&quot;&gt;user_id&lt;/span&gt;" style="shape=partialRectangle;html=1;whiteSpace=wrap;connectable=0;fillColor=none;top=0;left=0;bottom=0;right=0;align=left;spacingLeft=6;overflow=hidden;strokeColor=inherit;fontSize=16;" vertex="1" parent="0eS5o4qL9L04yY5VfjOq-132">
          <mxGeometry x="40" width="140" height="30" as="geometry">
            <mxRectangle width="140" height="30" as="alternateBounds" />
          </mxGeometry>
        </mxCell>
        <mxCell id="0eS5o4qL9L04yY5VfjOq-135" value="" style="shape=tableRow;horizontal=0;startSize=0;swimlaneHead=0;swimlaneBody=0;top=0;left=0;bottom=0;right=0;collapsible=0;dropTarget=0;fillColor=none;points=[[0,0.5],[1,0.5]];portConstraint=eastwest;strokeColor=inherit;fontSize=16;" vertex="1" parent="0eS5o4qL9L04yY5VfjOq-131">
          <mxGeometry y="60" width="180" height="30" as="geometry" />
        </mxCell>
        <mxCell id="0eS5o4qL9L04yY5VfjOq-136" value="" style="shape=partialRectangle;html=1;whiteSpace=wrap;connectable=0;fillColor=none;top=0;left=0;bottom=0;right=0;overflow=hidden;strokeColor=inherit;fontSize=16;" vertex="1" parent="0eS5o4qL9L04yY5VfjOq-135">
          <mxGeometry width="40" height="30" as="geometry">
            <mxRectangle width="40" height="30" as="alternateBounds" />
          </mxGeometry>
        </mxCell>
        <mxCell id="0eS5o4qL9L04yY5VfjOq-137" value="&lt;span style=&quot;font-family: Verdana, Arial, Helvetica, sans-serif; font-size: 12.96px; white-space: pre; background-color: rgb(238, 238, 238);&quot;&gt;role_id&lt;/span&gt;" style="shape=partialRectangle;html=1;whiteSpace=wrap;connectable=0;fillColor=none;top=0;left=0;bottom=0;right=0;align=left;spacingLeft=6;overflow=hidden;strokeColor=inherit;fontSize=16;" vertex="1" parent="0eS5o4qL9L04yY5VfjOq-135">
          <mxGeometry x="40" width="140" height="30" as="geometry">
            <mxRectangle width="140" height="30" as="alternateBounds" />
          </mxGeometry>
        </mxCell>
        <mxCell id="0eS5o4qL9L04yY5VfjOq-142" value="roles" style="shape=table;startSize=30;container=1;collapsible=0;childLayout=tableLayout;fixedRows=1;rowLines=0;fontStyle=0;strokeColor=default;fontSize=16;" vertex="1" parent="1">
          <mxGeometry x="570" y="50" width="180" height="120" as="geometry" />
        </mxCell>
        <mxCell id="0eS5o4qL9L04yY5VfjOq-143" value="" style="shape=tableRow;horizontal=0;startSize=0;swimlaneHead=0;swimlaneBody=0;top=0;left=0;bottom=0;right=0;collapsible=0;dropTarget=0;fillColor=none;points=[[0,0.5],[1,0.5]];portConstraint=eastwest;strokeColor=inherit;fontSize=16;" vertex="1" parent="0eS5o4qL9L04yY5VfjOq-142">
          <mxGeometry y="30" width="180" height="30" as="geometry" />
        </mxCell>
        <mxCell id="0eS5o4qL9L04yY5VfjOq-144" value="" style="shape=partialRectangle;html=1;whiteSpace=wrap;connectable=0;fillColor=none;top=0;left=0;bottom=0;right=0;overflow=hidden;pointerEvents=1;strokeColor=inherit;fontSize=16;" vertex="1" parent="0eS5o4qL9L04yY5VfjOq-143">
          <mxGeometry width="40" height="30" as="geometry">
            <mxRectangle width="40" height="30" as="alternateBounds" />
          </mxGeometry>
        </mxCell>
        <mxCell id="0eS5o4qL9L04yY5VfjOq-145" value="id" style="shape=partialRectangle;html=1;whiteSpace=wrap;connectable=0;fillColor=none;top=0;left=0;bottom=0;right=0;align=left;spacingLeft=6;overflow=hidden;strokeColor=inherit;fontSize=16;fontStyle=0" vertex="1" parent="0eS5o4qL9L04yY5VfjOq-143">
          <mxGeometry x="40" width="140" height="30" as="geometry">
            <mxRectangle width="140" height="30" as="alternateBounds" />
          </mxGeometry>
        </mxCell>
        <mxCell id="0eS5o4qL9L04yY5VfjOq-146" value="" style="shape=tableRow;horizontal=0;startSize=0;swimlaneHead=0;swimlaneBody=0;top=0;left=0;bottom=0;right=0;collapsible=0;dropTarget=0;fillColor=none;points=[[0,0.5],[1,0.5]];portConstraint=eastwest;strokeColor=inherit;fontSize=16;" vertex="1" parent="0eS5o4qL9L04yY5VfjOq-142">
          <mxGeometry y="60" width="180" height="30" as="geometry" />
        </mxCell>
        <mxCell id="0eS5o4qL9L04yY5VfjOq-147" value="" style="shape=partialRectangle;html=1;whiteSpace=wrap;connectable=0;fillColor=none;top=0;left=0;bottom=0;right=0;overflow=hidden;strokeColor=inherit;fontSize=16;" vertex="1" parent="0eS5o4qL9L04yY5VfjOq-146">
          <mxGeometry width="40" height="30" as="geometry">
            <mxRectangle width="40" height="30" as="alternateBounds" />
          </mxGeometry>
        </mxCell>
        <mxCell id="0eS5o4qL9L04yY5VfjOq-148" value="name" style="shape=partialRectangle;html=1;whiteSpace=wrap;connectable=0;fillColor=none;top=0;left=0;bottom=0;right=0;align=left;spacingLeft=6;overflow=hidden;strokeColor=inherit;fontSize=16;fontStyle=0" vertex="1" parent="0eS5o4qL9L04yY5VfjOq-146">
          <mxGeometry x="40" width="140" height="30" as="geometry">
            <mxRectangle width="140" height="30" as="alternateBounds" />
          </mxGeometry>
        </mxCell>
        <mxCell id="0eS5o4qL9L04yY5VfjOq-149" value="" style="shape=tableRow;horizontal=0;startSize=0;swimlaneHead=0;swimlaneBody=0;top=0;left=0;bottom=0;right=0;collapsible=0;dropTarget=0;fillColor=none;points=[[0,0.5],[1,0.5]];portConstraint=eastwest;strokeColor=inherit;fontSize=16;" vertex="1" parent="0eS5o4qL9L04yY5VfjOq-142">
          <mxGeometry y="90" width="180" height="30" as="geometry" />
        </mxCell>
        <mxCell id="0eS5o4qL9L04yY5VfjOq-150" value="" style="shape=partialRectangle;html=1;whiteSpace=wrap;connectable=0;fillColor=none;top=0;left=0;bottom=0;right=0;overflow=hidden;strokeColor=inherit;fontSize=16;" vertex="1" parent="0eS5o4qL9L04yY5VfjOq-149">
          <mxGeometry width="40" height="30" as="geometry">
            <mxRectangle width="40" height="30" as="alternateBounds" />
          </mxGeometry>
        </mxCell>
        <mxCell id="0eS5o4qL9L04yY5VfjOq-151" value="&lt;span style=&quot;font-family: Verdana, Arial, Helvetica, sans-serif; font-size: 12.96px; white-space: pre; background-color: rgb(238, 238, 238);&quot;&gt;guard_name&lt;/span&gt;" style="shape=partialRectangle;html=1;whiteSpace=wrap;connectable=0;fillColor=none;top=0;left=0;bottom=0;right=0;align=left;spacingLeft=6;overflow=hidden;strokeColor=inherit;fontSize=16;" vertex="1" parent="0eS5o4qL9L04yY5VfjOq-149">
          <mxGeometry x="40" width="140" height="30" as="geometry">
            <mxRectangle width="140" height="30" as="alternateBounds" />
          </mxGeometry>
        </mxCell>
        <mxCell id="0eS5o4qL9L04yY5VfjOq-160" value="" style="endArrow=none;html=1;rounded=0;exitX=0.005;exitY=0.103;exitDx=0;exitDy=0;exitPerimeter=0;" edge="1" parent="1">
          <mxGeometry width="50" height="50" relative="1" as="geometry">
            <mxPoint x="570.8999999999999" y="109.14000000000003" as="sourcePoint" />
            <mxPoint x="750" y="109.05" as="targetPoint" />
          </mxGeometry>
        </mxCell>
        <mxCell id="0eS5o4qL9L04yY5VfjOq-161" value="&lt;span style=&quot;color: rgb(0, 0, 0); font-family: Helvetica; font-size: 16px; font-style: normal; font-variant-ligatures: normal; font-variant-caps: normal; font-weight: 400; letter-spacing: normal; orphans: 2; text-align: center; text-indent: 0px; text-transform: none; widows: 2; word-spacing: 0px; -webkit-text-stroke-width: 0px; white-space: normal; background-color: rgb(251, 251, 251); text-decoration-thickness: initial; text-decoration-style: initial; text-decoration-color: initial; display: inline !important; float: none;&quot;&gt;PK&lt;/span&gt;" style="text;whiteSpace=wrap;html=1;" vertex="1" parent="1">
          <mxGeometry x="580" y="80" width="50" height="40" as="geometry" />
        </mxCell>
        <mxCell id="0eS5o4qL9L04yY5VfjOq-166" value="" style="endArrow=classic;startArrow=classic;html=1;rounded=0;edgeStyle=elbowEdgeStyle;exitX=1;exitY=0.5;exitDx=0;exitDy=0;" edge="1" parent="1">
          <mxGeometry width="50" height="50" relative="1" as="geometry">
            <mxPoint x="210" y="92" as="sourcePoint" />
            <mxPoint x="310" y="127" as="targetPoint" />
          </mxGeometry>
        </mxCell>
        <mxCell id="0eS5o4qL9L04yY5VfjOq-167" value="" style="endArrow=classic;startArrow=classic;html=1;rounded=0;edgeStyle=elbowEdgeStyle;exitX=1;exitY=0.5;exitDx=0;exitDy=0;entryX=0;entryY=0.5;entryDx=0;entryDy=0;" edge="1" parent="1" target="0eS5o4qL9L04yY5VfjOq-143">
          <mxGeometry width="50" height="50" relative="1" as="geometry">
            <mxPoint x="490" y="125" as="sourcePoint" />
            <mxPoint x="590" y="160" as="targetPoint" />
          </mxGeometry>
        </mxCell>
        <mxCell id="0eS5o4qL9L04yY5VfjOq-170" value="" style="edgeStyle=segmentEdgeStyle;endArrow=classic;html=1;curved=0;rounded=0;endSize=8;startSize=8;" edge="1" parent="1">
          <mxGeometry width="50" height="50" relative="1" as="geometry">
            <mxPoint x="100" y="600" as="sourcePoint" />
            <mxPoint x="680" y="180" as="targetPoint" />
            <Array as="points">
              <mxPoint x="680" y="600" />
            </Array>
          </mxGeometry>
        </mxCell>
        <mxCell id="0eS5o4qL9L04yY5VfjOq-171" value="" style="endArrow=classic;html=1;rounded=0;entryX=0.4;entryY=1.175;entryDx=0;entryDy=0;entryPerimeter=0;" edge="1" parent="1" target="0eS5o4qL9L04yY5VfjOq-114">
          <mxGeometry width="50" height="50" relative="1" as="geometry">
            <mxPoint x="100" y="600" as="sourcePoint" />
            <mxPoint x="104.51999999999998" y="531.5" as="targetPoint" />
          </mxGeometry>
        </mxCell>
        <mxCell id="0eS5o4qL9L04yY5VfjOq-172" value="&lt;font style=&quot;font-size: 15px;&quot;&gt;1&lt;/font&gt;" style="text;html=1;align=center;verticalAlign=middle;whiteSpace=wrap;rounded=0;strokeWidth=7;" vertex="1" parent="1">
          <mxGeometry x="194" y="60" width="60" height="30" as="geometry" />
        </mxCell>
        <mxCell id="0eS5o4qL9L04yY5VfjOq-173" value="&lt;font style=&quot;font-size: 15px;&quot;&gt;М&lt;/font&gt;" style="text;html=1;align=center;verticalAlign=middle;whiteSpace=wrap;rounded=0;strokeWidth=7;" vertex="1" parent="1">
          <mxGeometry x="265" y="95" width="60" height="30" as="geometry" />
        </mxCell>
        <mxCell id="0eS5o4qL9L04yY5VfjOq-174" value="&lt;font style=&quot;font-size: 15px;&quot;&gt;М&lt;/font&gt;" style="text;html=1;align=center;verticalAlign=middle;whiteSpace=wrap;rounded=0;strokeWidth=7;" vertex="1" parent="1">
          <mxGeometry x="470" y="95" width="60" height="30" as="geometry" />
        </mxCell>
        <mxCell id="0eS5o4qL9L04yY5VfjOq-175" value="&lt;font style=&quot;font-size: 15px;&quot;&gt;1&lt;/font&gt;" style="text;html=1;align=center;verticalAlign=middle;whiteSpace=wrap;rounded=0;strokeWidth=7;" vertex="1" parent="1">
          <mxGeometry x="530" y="60" width="60" height="30" as="geometry" />
        </mxCell>
        <mxCell id="0eS5o4qL9L04yY5VfjOq-176" value="&lt;font style=&quot;font-size: 15px;&quot;&gt;М&lt;/font&gt;" style="text;html=1;align=center;verticalAlign=middle;whiteSpace=wrap;rounded=0;strokeWidth=7;" vertex="1" parent="1">
          <mxGeometry x="90" y="570" width="60" height="30" as="geometry" />
        </mxCell>
        <mxCell id="0eS5o4qL9L04yY5VfjOq-177" value="&lt;font style=&quot;font-size: 15px;&quot;&gt;М&lt;/font&gt;" style="text;html=1;align=center;verticalAlign=middle;whiteSpace=wrap;rounded=0;strokeWidth=7;" vertex="1" parent="1">
          <mxGeometry x="630" y="570" width="60" height="30" as="geometry" />
        </mxCell>
        <mxCell id="0eS5o4qL9L04yY5VfjOq-182" value="roles_layers" style="shape=table;startSize=30;container=1;collapsible=0;childLayout=tableLayout;fixedRows=1;rowLines=0;fontStyle=0;strokeColor=default;fontSize=16;" vertex="1" parent="1">
          <mxGeometry x="324" y="240" width="180" height="210" as="geometry" />
        </mxCell>
        <mxCell id="0eS5o4qL9L04yY5VfjOq-183" value="" style="shape=tableRow;horizontal=0;startSize=0;swimlaneHead=0;swimlaneBody=0;top=0;left=0;bottom=0;right=0;collapsible=0;dropTarget=0;fillColor=none;points=[[0,0.5],[1,0.5]];portConstraint=eastwest;strokeColor=inherit;fontSize=16;" vertex="1" parent="0eS5o4qL9L04yY5VfjOq-182">
          <mxGeometry y="30" width="180" height="30" as="geometry" />
        </mxCell>
        <mxCell id="0eS5o4qL9L04yY5VfjOq-184" value="PK" style="shape=partialRectangle;html=1;whiteSpace=wrap;connectable=0;fillColor=none;top=0;left=0;bottom=0;right=0;overflow=hidden;pointerEvents=1;strokeColor=inherit;fontSize=16;" vertex="1" parent="0eS5o4qL9L04yY5VfjOq-183">
          <mxGeometry width="40" height="30" as="geometry">
            <mxRectangle width="40" height="30" as="alternateBounds" />
          </mxGeometry>
        </mxCell>
        <mxCell id="0eS5o4qL9L04yY5VfjOq-185" value="&lt;span style=&quot;font-family: Verdana, Arial, Helvetica, sans-serif; font-size: 12.96px; white-space: pre; background-color: rgb(238, 238, 238);&quot;&gt;id&lt;/span&gt;" style="shape=partialRectangle;html=1;whiteSpace=wrap;connectable=0;fillColor=none;top=0;left=0;bottom=0;right=0;align=left;spacingLeft=6;overflow=hidden;strokeColor=inherit;fontSize=16;" vertex="1" parent="0eS5o4qL9L04yY5VfjOq-183">
          <mxGeometry x="40" width="140" height="30" as="geometry">
            <mxRectangle width="140" height="30" as="alternateBounds" />
          </mxGeometry>
        </mxCell>
        <mxCell id="0eS5o4qL9L04yY5VfjOq-186" value="" style="shape=tableRow;horizontal=0;startSize=0;swimlaneHead=0;swimlaneBody=0;top=0;left=0;bottom=0;right=0;collapsible=0;dropTarget=0;fillColor=none;points=[[0,0.5],[1,0.5]];portConstraint=eastwest;strokeColor=inherit;fontSize=16;" vertex="1" parent="0eS5o4qL9L04yY5VfjOq-182">
          <mxGeometry y="60" width="180" height="30" as="geometry" />
        </mxCell>
        <mxCell id="0eS5o4qL9L04yY5VfjOq-187" value="" style="shape=partialRectangle;html=1;whiteSpace=wrap;connectable=0;fillColor=none;top=0;left=0;bottom=0;right=0;overflow=hidden;strokeColor=inherit;fontSize=16;" vertex="1" parent="0eS5o4qL9L04yY5VfjOq-186">
          <mxGeometry width="40" height="30" as="geometry">
            <mxRectangle width="40" height="30" as="alternateBounds" />
          </mxGeometry>
        </mxCell>
        <mxCell id="0eS5o4qL9L04yY5VfjOq-188" value="&lt;span style=&quot;font-family: Verdana, Arial, Helvetica, sans-serif; font-size: 12.96px; white-space: pre; background-color: rgb(238, 238, 238);&quot;&gt;id_role&lt;/span&gt;" style="shape=partialRectangle;html=1;whiteSpace=wrap;connectable=0;fillColor=none;top=0;left=0;bottom=0;right=0;align=left;spacingLeft=6;overflow=hidden;strokeColor=inherit;fontSize=16;" vertex="1" parent="0eS5o4qL9L04yY5VfjOq-186">
          <mxGeometry x="40" width="140" height="30" as="geometry">
            <mxRectangle width="140" height="30" as="alternateBounds" />
          </mxGeometry>
        </mxCell>
        <mxCell id="0eS5o4qL9L04yY5VfjOq-189" value="" style="shape=tableRow;horizontal=0;startSize=0;swimlaneHead=0;swimlaneBody=0;top=0;left=0;bottom=0;right=0;collapsible=0;dropTarget=0;fillColor=none;points=[[0,0.5],[1,0.5]];portConstraint=eastwest;strokeColor=inherit;fontSize=16;" vertex="1" parent="0eS5o4qL9L04yY5VfjOq-182">
          <mxGeometry y="90" width="180" height="30" as="geometry" />
        </mxCell>
        <mxCell id="0eS5o4qL9L04yY5VfjOq-190" value="" style="shape=partialRectangle;html=1;whiteSpace=wrap;connectable=0;fillColor=none;top=0;left=0;bottom=0;right=0;overflow=hidden;strokeColor=inherit;fontSize=16;" vertex="1" parent="0eS5o4qL9L04yY5VfjOq-189">
          <mxGeometry width="40" height="30" as="geometry">
            <mxRectangle width="40" height="30" as="alternateBounds" />
          </mxGeometry>
        </mxCell>
        <mxCell id="0eS5o4qL9L04yY5VfjOq-191" value="&lt;span style=&quot;font-family: Verdana, Arial, Helvetica, sans-serif; font-size: 12.96px; white-space: pre; background-color: rgb(238, 238, 238);&quot;&gt;id_layer&lt;/span&gt;" style="shape=partialRectangle;html=1;whiteSpace=wrap;connectable=0;fillColor=none;top=0;left=0;bottom=0;right=0;align=left;spacingLeft=6;overflow=hidden;strokeColor=inherit;fontSize=16;" vertex="1" parent="0eS5o4qL9L04yY5VfjOq-189">
          <mxGeometry x="40" width="140" height="30" as="geometry">
            <mxRectangle width="140" height="30" as="alternateBounds" />
          </mxGeometry>
        </mxCell>
        <mxCell id="0eS5o4qL9L04yY5VfjOq-192" value="" style="shape=tableRow;horizontal=0;startSize=0;swimlaneHead=0;swimlaneBody=0;top=0;left=0;bottom=0;right=0;collapsible=0;dropTarget=0;fillColor=none;points=[[0,0.5],[1,0.5]];portConstraint=eastwest;strokeColor=inherit;fontSize=16;" vertex="1" parent="0eS5o4qL9L04yY5VfjOq-182">
          <mxGeometry y="120" width="180" height="30" as="geometry" />
        </mxCell>
        <mxCell id="0eS5o4qL9L04yY5VfjOq-193" value="" style="shape=partialRectangle;html=1;whiteSpace=wrap;connectable=0;fillColor=none;top=0;left=0;bottom=0;right=0;overflow=hidden;strokeColor=inherit;fontSize=16;" vertex="1" parent="0eS5o4qL9L04yY5VfjOq-192">
          <mxGeometry width="40" height="30" as="geometry">
            <mxRectangle width="40" height="30" as="alternateBounds" />
          </mxGeometry>
        </mxCell>
        <mxCell id="0eS5o4qL9L04yY5VfjOq-194" value="&lt;span style=&quot;font-family: Verdana, Arial, Helvetica, sans-serif; font-size: 12.96px; white-space: pre; background-color: rgb(238, 238, 238);&quot;&gt;permissions&lt;/span&gt;" style="shape=partialRectangle;html=1;whiteSpace=wrap;connectable=0;fillColor=none;top=0;left=0;bottom=0;right=0;align=left;spacingLeft=6;overflow=hidden;strokeColor=inherit;fontSize=16;" vertex="1" parent="0eS5o4qL9L04yY5VfjOq-192">
          <mxGeometry x="40" width="140" height="30" as="geometry">
            <mxRectangle width="140" height="30" as="alternateBounds" />
          </mxGeometry>
        </mxCell>
        <mxCell id="0eS5o4qL9L04yY5VfjOq-195" value="" style="shape=tableRow;horizontal=0;startSize=0;swimlaneHead=0;swimlaneBody=0;top=0;left=0;bottom=0;right=0;collapsible=0;dropTarget=0;fillColor=none;points=[[0,0.5],[1,0.5]];portConstraint=eastwest;strokeColor=inherit;fontSize=16;" vertex="1" parent="0eS5o4qL9L04yY5VfjOq-182">
          <mxGeometry y="150" width="180" height="20" as="geometry" />
        </mxCell>
        <mxCell id="0eS5o4qL9L04yY5VfjOq-196" value="" style="shape=partialRectangle;html=1;whiteSpace=wrap;connectable=0;fillColor=none;top=0;left=0;bottom=0;right=0;overflow=hidden;strokeColor=inherit;fontSize=16;" vertex="1" parent="0eS5o4qL9L04yY5VfjOq-195">
          <mxGeometry width="40" height="20" as="geometry">
            <mxRectangle width="40" height="20" as="alternateBounds" />
          </mxGeometry>
        </mxCell>
        <mxCell id="0eS5o4qL9L04yY5VfjOq-197" value="&lt;span style=&quot;font-family: Verdana, Arial, Helvetica, sans-serif; font-size: 12.96px; white-space: pre; background-color: rgb(238, 238, 238);&quot;&gt;created_at&lt;/span&gt;" style="shape=partialRectangle;html=1;whiteSpace=wrap;connectable=0;fillColor=none;top=0;left=0;bottom=0;right=0;align=left;spacingLeft=6;overflow=hidden;strokeColor=inherit;fontSize=16;fontStyle=0" vertex="1" parent="0eS5o4qL9L04yY5VfjOq-195">
          <mxGeometry x="40" width="140" height="20" as="geometry">
            <mxRectangle width="140" height="20" as="alternateBounds" />
          </mxGeometry>
        </mxCell>
        <mxCell id="0eS5o4qL9L04yY5VfjOq-198" value="" style="shape=tableRow;horizontal=0;startSize=0;swimlaneHead=0;swimlaneBody=0;top=0;left=0;bottom=0;right=0;collapsible=0;dropTarget=0;fillColor=none;points=[[0,0.5],[1,0.5]];portConstraint=eastwest;strokeColor=inherit;fontSize=16;" vertex="1" parent="0eS5o4qL9L04yY5VfjOq-182">
          <mxGeometry y="170" width="180" height="40" as="geometry" />
        </mxCell>
        <mxCell id="0eS5o4qL9L04yY5VfjOq-199" value="" style="shape=partialRectangle;html=1;whiteSpace=wrap;connectable=0;fillColor=none;top=0;left=0;bottom=0;right=0;overflow=hidden;strokeColor=inherit;fontSize=16;" vertex="1" parent="0eS5o4qL9L04yY5VfjOq-198">
          <mxGeometry width="40" height="40" as="geometry">
            <mxRectangle width="40" height="40" as="alternateBounds" />
          </mxGeometry>
        </mxCell>
        <mxCell id="0eS5o4qL9L04yY5VfjOq-200" value="&lt;span style=&quot;font-family: Verdana, Arial, Helvetica, sans-serif; font-size: 12.96px; white-space: pre; background-color: rgb(238, 238, 238);&quot;&gt;updated_at&lt;/span&gt;" style="shape=partialRectangle;html=1;whiteSpace=wrap;connectable=0;fillColor=none;top=0;left=0;bottom=0;right=0;align=left;spacingLeft=6;overflow=hidden;strokeColor=inherit;fontSize=16;" vertex="1" parent="0eS5o4qL9L04yY5VfjOq-198">
          <mxGeometry x="40" width="140" height="40" as="geometry">
            <mxRectangle width="140" height="40" as="alternateBounds" />
          </mxGeometry>
        </mxCell>
        <mxCell id="0eS5o4qL9L04yY5VfjOq-204" value="" style="edgeStyle=elbowEdgeStyle;elbow=horizontal;endArrow=classic;html=1;curved=0;rounded=0;endSize=8;startSize=8;startArrow=classic;startFill=1;entryX=-0.012;entryY=0.818;entryDx=0;entryDy=0;entryPerimeter=0;" edge="1" parent="1" target="0eS5o4qL9L04yY5VfjOq-143">
          <mxGeometry width="50" height="50" relative="1" as="geometry">
            <mxPoint x="504" y="315" as="sourcePoint" />
            <mxPoint x="554" y="265" as="targetPoint" />
          </mxGeometry>
        </mxCell>
        <mxCell id="0eS5o4qL9L04yY5VfjOq-205" value="" style="endArrow=none;html=1;rounded=0;exitX=0.005;exitY=0.103;exitDx=0;exitDy=0;exitPerimeter=0;" edge="1" parent="1">
          <mxGeometry width="50" height="50" relative="1" as="geometry">
            <mxPoint x="323.9999999999999" y="300.09000000000003" as="sourcePoint" />
            <mxPoint x="503.1" y="300" as="targetPoint" />
          </mxGeometry>
        </mxCell>
      </root>
    </mxGraphModel>
  </diagram>
</mxfile>
